<svg width="1920" height="1080" viewBox="0 0 1920 1080" fill="none" xmlns="http://www.w3.org/2000/svg">
<rect width="1920" height="1080" fill="#2C2C2C"/>
<path fill-rule="evenodd" clip-rule="evenodd" d="M916.824 417.019C919.651 418.772 921.371 421.861 921.371 425.188C921.371 478.221 934.519 516.098 959.211 540.789C983.902 565.481 1021.78 578.629 1074.81 578.629C1078.14 578.629 1081.23 580.349 1082.98 583.176C1084.73 586.003 1084.9 589.536 1083.42 592.514C1061.95 635.706 1017.37 665.422 965.822 665.422C893.338 665.422 834.578 606.662 834.578 534.178C834.578 482.633 864.294 438.046 907.486 416.582C910.464 415.102 913.997 415.267 916.824 417.019ZM902.576 441.7C873.108 461.892 853.797 495.787 853.797 534.178C853.797 596.048 903.952 646.203 965.822 646.203C1004.21 646.203 1038.11 626.892 1058.3 597.424C1010.22 594.895 972.231 580.989 945.621 554.379C919.011 527.769 905.105 489.784 902.576 441.7Z" fill="#33AC87"/>
<path fill-rule="evenodd" clip-rule="evenodd" d="M1058.8 434.797H1074.81C1080.12 434.797 1084.42 430.495 1084.42 425.188C1084.42 419.88 1080.12 415.578 1074.81 415.578H1056.87C1047.32 415.578 1039.58 423.322 1039.58 432.875V481.281C1036.57 480.219 1033.34 479.641 1029.97 479.641C1014.05 479.641 1001.14 492.547 1001.14 508.469C1001.14 524.39 1014.05 537.297 1029.97 537.297C1045.89 537.297 1058.8 524.39 1058.8 508.469V434.797ZM1039.58 508.469C1039.58 503.162 1035.28 498.859 1029.97 498.859C1024.66 498.859 1020.36 503.162 1020.36 508.469C1020.36 513.776 1024.66 518.078 1029.97 518.078C1035.28 518.078 1039.58 513.776 1039.58 508.469Z" fill="#33AC87"/>
</svg>
